<?xml version="1.0" standalone="no"?>
<!DOCTYPE svg PUBLIC "-//W3C//DTD SVG 20010904//EN"
 "http://www.w3.org/TR/2001/REC-SVG-20010904/DTD/svg10.dtd">
<svg version="1.0" xmlns="http://www.w3.org/2000/svg"
 width="512.000000pt" height="512.000000pt" viewBox="0 0 512.000000 512.000000"
 preserveAspectRatio="xMidYMid meet">

<g transform="translate(0.000000,512.000000) scale(0.100000,-0.100000)"
fill="#000000" stroke="none">
<path d="M910 4674 c-177 -47 -335 -175 -415 -339 -70 -141 -66 -20 -63 -1801
l3 -1609 26 -67 c76 -196 226 -341 414 -401 l70 -22 1615 0 1615 0 70 22 c194
62 356 224 418 418 l22 70 0 1615 0 1615 -22 70 c-60 188 -205 338 -401 414
l-67 26 -1615 2 c-1384 2 -1623 0 -1670 -13z m1124 -946 l184 -92 -259 -518
c-142 -285 -264 -518 -269 -518 -13 0 -610 299 -610 305 0 6 180 368 187 375
2 2 56 -22 120 -53 63 -32 117 -57 118 -55 2 2 75 148 164 326 89 177 166 322
171 322 5 0 93 -41 194 -92z m2016 -528 l0 -210 -690 0 -690 0 0 210 0 210
690 0 690 0 0 -210z m-2020 -960 c99 -50 180 -95 180 -100 0 -5 -116 -241
-257 -524 l-257 -514 -308 154 -308 154 95 190 95 190 110 -55 c60 -30 114
-55 120 -55 5 0 83 146 172 325 90 179 166 325 171 325 4 0 88 -41 187 -90z
m2020 -535 l0 -215 -690 0 -690 0 0 215 0 215 690 0 690 0 0 -215z"/>
</g>
</svg>
